<svg width="24" height="24" viewBox="0 0 24 24" fill="none" xmlns="http://www.w3.org/2000/svg">
<path d="M12.9531 1.90626L14.7275 7.49709C14.9911 8.32777 15.7623 8.8921 16.6338 8.8921H22.4493C23.4123 8.8921 23.8188 10.1197 23.0461 10.6945L18.281 14.239C17.5965 14.7481 17.3103 15.6355 17.5684 16.4487L19.3741 22.1384C19.6678 23.0639 18.6032 23.8228 17.8241 23.2433L13.1937 19.7989C12.4851 19.2719 11.5149 19.2719 10.8063 19.7989L6.17589 23.2433C5.39683 23.8228 4.3322 23.0639 4.62591 22.1384L6.43161 16.4487C6.68969 15.6355 6.40351 14.7481 5.71898 14.239L0.953854 10.6945C0.181163 10.1197 0.58767 8.8921 1.55069 8.8921H7.36622C8.23773 8.8921 9.0089 8.32777 9.27252 7.49709L11.0468 1.90626C11.342 0.976254 12.658 0.976254 12.9531 1.90626Z" stroke="black"/>
</svg>
