<svg width="24" height="24" viewBox="0 0 24 24" fill="none" xmlns="http://www.w3.org/2000/svg">
<path d="M10.5703 1.75501C11.013 0.360003 12.987 0.360003 13.4297 1.75501L15.2041 7.34584C15.4018 7.96885 15.9801 8.3921 16.6338 8.3921H22.4493C23.8938 8.3921 24.5036 10.2335 23.3446 11.0957L18.5794 14.6401C18.066 15.022 17.8514 15.6876 18.045 16.2974L19.8507 21.9871C20.2912 23.3753 18.6943 24.5137 17.5257 23.6444L12.8952 20.2001C12.3639 19.8049 11.6361 19.8049 11.1048 20.2001L6.47431 23.6444C5.30572 24.5137 3.70877 23.3753 4.14933 21.9871L5.95504 16.2974C6.14859 15.6876 5.93396 15.022 5.42056 14.6401L0.655438 11.0956C-0.503599 10.2335 0.106163 8.3921 1.55069 8.3921H7.36622C8.01985 8.3921 8.59823 7.96885 8.79595 7.34584L10.5703 1.75501Z" fill="#F1C93B" fill-opacity="0.88"/>
</svg>
