<svg width="48" height="48" viewBox="0 0 48 48" fill="none" xmlns="http://www.w3.org/2000/svg">
<path d="M40.5 42C40.5 42.1718 40.3969 42.5743 39.657 43.1574C38.934 43.7271 37.7949 44.3058 36.2536 44.8196C33.1866 45.8419 28.8542 46.5 24 46.5C19.1458 46.5 14.8134 45.8419 11.7464 44.8196C10.2051 44.3058 9.06597 43.7271 8.34299 43.1574C7.6031 42.5743 7.5 42.1718 7.5 42C7.5 41.8282 7.6031 41.4257 8.34299 40.8426C9.06597 40.2729 10.2051 39.6942 11.7464 39.1804C14.8134 38.1581 19.1458 37.5 24 37.5C28.8542 37.5 33.1866 38.1581 36.2536 39.1804C37.7949 39.6942 38.934 40.2729 39.657 40.8426C40.3969 41.4257 40.5 41.8282 40.5 42Z" stroke="#152C5B" stroke-width="3"/>
<path d="M37.5 10.6105C37.5 11.8908 37.1164 14.4423 36.3613 17.6429C35.6155 20.8044 34.5357 24.4805 33.2052 27.9681C31.8687 31.4712 30.3075 34.7082 28.6227 37.0413C26.875 39.4612 25.2942 40.5 24 40.5C22.7058 40.5 21.125 39.4612 19.3774 37.0413C17.6925 34.7082 16.1314 31.4712 14.7949 27.9681C13.4643 24.4805 12.3846 20.8044 11.6387 17.6429C10.8837 14.4423 10.5 11.8908 10.5 10.6105C10.5 8.29722 11.8233 6.05575 14.2597 4.33235C16.6923 2.61158 20.1313 1.5 24 1.5C27.8688 1.5 31.3078 2.61158 33.7404 4.33235C36.1768 6.05575 37.5 8.29722 37.5 10.6105Z" fill="white" stroke="#152C5B" stroke-width="3"/>
<circle cx="24" cy="13" r="4.5" stroke="#D98C32" stroke-width="3"/>
</svg>
