<svg width="48" height="48" viewBox="0 0 48 48" fill="none" xmlns="http://www.w3.org/2000/svg">
<path d="M22.0937 9.00669C22.684 7.14667 25.316 7.14667 25.9063 9.00668L28.2721 16.4611C28.5357 17.2918 29.3069 17.8561 30.1784 17.8561H37.9324C39.8584 17.8561 40.6715 20.3113 39.1261 21.4609L32.7726 26.1869C32.088 26.696 31.8019 27.5834 32.0599 28.3966L34.4676 35.9829C35.055 37.8338 32.9257 39.3516 31.3676 38.1926L25.1937 33.6002C24.4851 33.0731 23.5149 33.0731 22.8063 33.6002L16.6324 38.1926C15.0743 39.3516 12.945 37.8338 13.5324 35.9829L15.9401 28.3966C16.1981 27.5834 15.912 26.696 15.2274 26.1869L8.87391 21.4609C7.32853 20.3113 8.14155 17.8561 10.0676 17.8561H17.8216C18.6931 17.8561 19.4643 17.2918 19.7279 16.4611L22.0937 9.00669Z" fill="#B0B0B0"/>
</svg>
