<svg width="48" height="48" viewBox="0 0 48 48" fill="none" xmlns="http://www.w3.org/2000/svg">
<circle cx="25" cy="24" r="4.5" stroke="#D98C32" stroke-width="3"/>
<line x1="36" y1="18" x2="40" y2="18" stroke="#343D51" stroke-width="2" stroke-linecap="round"/>
<mask id="path-3-inside-1" fill="white">
<path fill-rule="evenodd" clip-rule="evenodd" d="M19.386 7C18.5523 7 17.8061 7.51714 17.5133 8.29775L16.125 12H8C3.58172 12 0 15.5817 0 20V30C0 34.4183 3.58172 38 8 38H40C44.4183 38 48 34.4183 48 30V20C48 15.5817 44.4183 12 40 12H32.875L31.4867 8.29775C31.1939 7.51715 30.4477 7 29.614 7H19.386Z"/>
</mask>
<path d="M17.5133 8.29775L20.3223 9.35112L20.3223 9.35112L17.5133 8.29775ZM16.125 12V15H18.204L18.934 13.0534L16.125 12ZM32.875 12L30.066 13.0534L30.796 15H32.875V12ZM31.4867 8.29775L34.2956 7.24438V7.24438L31.4867 8.29775ZM20.3223 9.35112C20.176 9.74143 19.8028 10 19.386 10V4C17.3018 4 15.4362 5.29286 14.7044 7.24439L20.3223 9.35112ZM18.934 13.0534L20.3223 9.35112L14.7044 7.24438L13.316 10.9466L18.934 13.0534ZM8 15H16.125V9H8V15ZM3 20C3 17.2386 5.23858 15 8 15V9C1.92487 9 -3 13.9249 -3 20H3ZM3 30V20H-3V30H3ZM8 35C5.23858 35 3 32.7614 3 30H-3C-3 36.0751 1.92487 41 8 41V35ZM40 35H8V41H40V35ZM45 30C45 32.7614 42.7614 35 40 35V41C46.0751 41 51 36.0751 51 30H45ZM45 20V30H51V20H45ZM40 15C42.7614 15 45 17.2386 45 20H51C51 13.9249 46.0751 9 40 9V15ZM32.875 15H40V9H32.875V15ZM28.6777 9.35112L30.066 13.0534L35.684 10.9466L34.2956 7.24438L28.6777 9.35112ZM29.614 10C29.1972 10 28.824 9.74143 28.6777 9.35113L34.2956 7.24438C33.5638 5.29287 31.6982 4 29.614 4V10ZM19.386 10H29.614V4H19.386V10Z" fill="#152C5B" mask="url(#path-3-inside-1)"/>
</svg>
